<svg width="108" height="108" viewBox="0 0 108 108" fill="none" xmlns="http://www.w3.org/2000/svg">
<g filter="url(#filter0_d_91_2391)">
<rect x="24" y="14" width="60" height="60" rx="30" fill="white"/>
</g>
<path d="M63.9913 52.9957H43.9998C43.4475 52.9957 43 53.4432 43 53.996C43 54.5478 43.4475 54.9953 43.9998 54.9953H63.9908C64.5431 54.9953 64.9906 54.5478 64.9906 53.996C64.9902 53.4432 64.5427 52.9957 63.9913 52.9957Z" fill="#A1B6DB"/>
<path fill-rule="evenodd" clip-rule="evenodd" d="M44.25 51.3962C44.25 50.8439 44.6975 50.3964 45.2498 50.3964V50.3959H45.4998V41.3998H45.2498C44.9741 41.3998 44.7504 41.176 44.7504 40.9003C44.7504 40.6246 44.9737 40.4009 45.2498 40.4009H62.7422C63.0179 40.4009 63.2416 40.6246 63.2416 40.9003C63.2416 41.176 63.0188 41.3998 62.7422 41.3998H62.4927V50.3964H62.7422C63.2945 50.3964 63.742 50.8439 63.742 51.3962C63.742 51.9485 63.2945 52.3965 62.7422 52.3965H45.2498C44.6975 52.3965 44.25 51.9485 44.25 51.3962ZM60.493 50.3959V41.3998H57.4945V50.3959H60.493ZM55.4948 41.3998V50.3959H52.4963V41.3998H55.4948ZM50.4971 41.3998H47.4985V50.3959H50.4971V41.3998Z" fill="#A1B6DB"/>
<path d="M43.9998 39.5022H63.9908C63.9941 39.5022 63.9979 39.5022 64.0007 39.5022C64.5535 39.5022 65.0005 39.0547 65.0005 38.5023C65.0005 38.0633 64.7178 37.6911 64.325 37.5563L54.4063 33.0931C54.1456 32.9761 53.8474 32.9761 53.5862 33.0931L43.5898 37.591C43.1596 37.7848 42.9233 38.2519 43.0225 38.7125C43.1213 39.1731 43.5285 39.5022 43.9998 39.5022Z" fill="#A1B6DB"/>
<defs>
<filter id="filter0_d_91_2391" x="0" y="0" width="108" height="108" filterUnits="userSpaceOnUse" color-interpolation-filters="sRGB">
<feFlood flood-opacity="0" result="BackgroundImageFix"/>
<feColorMatrix in="SourceAlpha" type="matrix" values="0 0 0 0 0 0 0 0 0 0 0 0 0 0 0 0 0 0 127 0" result="hardAlpha"/>
<feOffset dy="10"/>
<feGaussianBlur stdDeviation="12"/>
<feColorMatrix type="matrix" values="0 0 0 0 0.811765 0 0 0 0 0.92549 0 0 0 0 0.972549 0 0 0 0.5 0"/>
<feBlend mode="normal" in2="BackgroundImageFix" result="effect1_dropShadow_91_2391"/>
<feBlend mode="normal" in="SourceGraphic" in2="effect1_dropShadow_91_2391" result="shape"/>
</filter>
</defs>
</svg>
