<svg width="108" height="108" viewBox="0 0 108 108" fill="none" xmlns="http://www.w3.org/2000/svg">
<g filter="url(#filter0_d_91_2377)">
<rect x="24" y="14" width="60" height="60" rx="30" fill="white"/>
</g>
<path fill-rule="evenodd" clip-rule="evenodd" d="M59.6315 42.3837V40.839C59.6315 40.2806 59.1829 39.8275 58.6305 39.8275H56.0289C56.5549 39.1352 56.7713 38.4654 56.6726 37.8007C56.5495 36.9768 55.9741 36.3252 55.4652 35.749L55.4635 35.7472C54.7355 34.9229 54.3402 34.4234 54.6929 33.7391C54.806 33.5186 54.7439 33.2467 54.546 33.0992C54.349 32.9513 54.0733 32.9705 53.8981 33.1451C51.558 35.4658 52.7988 36.9856 53.7052 38.0959L53.7054 38.096C54.2846 38.8061 54.6336 39.277 54.5186 39.8275H51.5236C52.05 39.1352 52.266 38.4654 52.1673 37.8007C52.0447 36.9774 51.4696 36.3262 50.961 35.7503L50.9582 35.7472C50.2297 34.9229 49.8344 34.4234 50.1871 33.7391C50.3006 33.5186 50.2385 33.2467 50.0407 33.0992C49.8433 32.9513 49.5675 32.9705 49.3924 33.1451C47.0525 35.4655 48.2932 36.9853 49.1996 38.0955L49.2 38.096C49.7793 38.8061 50.1278 39.277 50.0129 39.8275H46.1128C45.5599 39.8275 45.1113 40.2806 45.1113 40.839V51.4594C45.1113 53.4113 46.6842 54.9991 48.6161 54.9991H56.1267C57.8965 54.9991 59.3609 53.665 59.5949 51.9411C61.9995 51.7042 63.8875 49.6512 63.8875 47.16C63.888 44.6825 62.0199 42.6374 59.6315 42.3837ZM49.618 50.9539C49.618 51.5118 49.1694 51.9654 48.6166 51.9654C48.0637 51.9654 47.6152 51.5118 47.6152 50.9539V43.3676C47.6152 42.8092 48.0637 42.3561 48.6166 42.3561C49.1694 42.3561 49.618 42.8092 49.618 43.3676V50.9539ZM61.8846 47.161C61.8846 45.8007 60.9115 44.667 59.6315 44.4278V49.8941C60.9115 49.6549 61.8851 48.5217 61.8846 47.161Z" fill="#A1B6DB"/>
<defs>
<filter id="filter0_d_91_2377" x="0" y="0" width="108" height="108" filterUnits="userSpaceOnUse" color-interpolation-filters="sRGB">
<feFlood flood-opacity="0" result="BackgroundImageFix"/>
<feColorMatrix in="SourceAlpha" type="matrix" values="0 0 0 0 0 0 0 0 0 0 0 0 0 0 0 0 0 0 127 0" result="hardAlpha"/>
<feOffset dy="10"/>
<feGaussianBlur stdDeviation="12"/>
<feColorMatrix type="matrix" values="0 0 0 0 0.811765 0 0 0 0 0.92549 0 0 0 0 0.972549 0 0 0 0.5 0"/>
<feBlend mode="normal" in2="BackgroundImageFix" result="effect1_dropShadow_91_2377"/>
<feBlend mode="normal" in="SourceGraphic" in2="effect1_dropShadow_91_2377" result="shape"/>
</filter>
</defs>
</svg>
