<svg width="108" height="108" viewBox="0 0 108 108" fill="none" xmlns="http://www.w3.org/2000/svg">
<g filter="url(#filter0_d_91_2409)">
<rect x="24" y="14" width="60" height="60" rx="30" fill="white"/>
</g>
<path fill-rule="evenodd" clip-rule="evenodd" d="M55.153 54.9539L50.5941 53.0275V32.0541C50.5941 32.0541 60.502 33.6951 61.8658 37.761C63.23 41.8274 61.1042 44.4611 60.3584 44.5385C58.2761 44.7525 57.4866 43.4684 57.4866 43.4684V36.9049L55.225 35.9776L55.153 54.9539ZM56.3379 52.0645V54.5251C56.3379 54.5251 67.0712 51.1011 68.6506 49.7816C70.2302 48.4619 64.9532 45.1806 62.1177 45.822C62.1177 45.822 59.1044 45.9664 56.3739 47.1417C56.3479 47.1523 56.3739 49.3528 56.3739 49.3528L63.3019 47.7484L65.7427 48.8183L56.3379 52.0645ZM44.9223 52.5636C48.0454 52.5994 49.4454 51.8864 49.4454 51.8864L49.4814 49.6386C49.4814 49.6386 47.1121 50.3957 44.2404 50.3165C42.9768 50.282 43.9171 49.1038 43.9171 49.1038L49.4093 47.677V45.0733C44.24 45.9295 39.1065 47.9626 39.0707 49.8175C39.0348 51.6717 41.7994 52.5276 44.9223 52.5636Z" fill="#A1B6DB"/>
<defs>
<filter id="filter0_d_91_2409" x="0" y="0" width="108" height="108" filterUnits="userSpaceOnUse" color-interpolation-filters="sRGB">
<feFlood flood-opacity="0" result="BackgroundImageFix"/>
<feColorMatrix in="SourceAlpha" type="matrix" values="0 0 0 0 0 0 0 0 0 0 0 0 0 0 0 0 0 0 127 0" result="hardAlpha"/>
<feOffset dy="10"/>
<feGaussianBlur stdDeviation="12"/>
<feColorMatrix type="matrix" values="0 0 0 0 0.811765 0 0 0 0 0.92549 0 0 0 0 0.972549 0 0 0 0.5 0"/>
<feBlend mode="normal" in2="BackgroundImageFix" result="effect1_dropShadow_91_2409"/>
<feBlend mode="normal" in="SourceGraphic" in2="effect1_dropShadow_91_2409" result="shape"/>
</filter>
</defs>
</svg>
