<svg width="108" height="108" viewBox="0 0 108 108" fill="none" xmlns="http://www.w3.org/2000/svg">
<g filter="url(#filter0_d_91_2350)">
<rect x="24" y="14" width="60" height="60" rx="30" fill="white"/>
</g>
<path fill-rule="evenodd" clip-rule="evenodd" d="M49.6096 33H63.5622C64.103 33 64.5417 33.4484 64.5421 33.9998V44V54.0002C64.5421 54.552 64.1035 55 63.5622 55H53.2813H43.9795C43.4386 55 43 54.5525 43 54.0002V44C43 43.4477 43.4386 43.0006 43.9795 43.0006H48.6302V33.9998C48.6302 33.448 49.0683 33 49.6096 33ZM62.5837 35.0001H50.5886L50.5891 43.0006H53.0283L57.9476 40.2188C58.2428 40.0526 58.6003 40.0526 58.8964 40.2188L62.5837 42.3032V35.0001ZM44.958 44.9998H49.6092H52.3019V52.9999H44.958V44.9998ZM54.2603 52.9999H62.5832V44.5893L58.4215 42.2367L54.2603 44.5893V52.9999Z" fill="#A1B6DB"/>
<path d="M47.6508 46.2501H46.1822C46.047 46.2501 45.9375 46.362 45.9375 46.5001V48.0003C45.9375 48.1384 46.047 48.2502 46.1822 48.2502H47.6508C47.7864 48.2502 47.8955 48.1384 47.8955 48.0003V46.5001C47.896 46.362 47.7864 46.2501 47.6508 46.2501Z" fill="#A1B6DB"/>
<path d="M51.0785 46.2501H49.61C49.4743 46.2501 49.3652 46.362 49.3652 46.5001V48.0003C49.3652 48.1384 49.4743 48.2502 49.61 48.2502H51.0785C51.2137 48.2502 51.3232 48.1384 51.3232 48.0003V46.5001C51.3232 46.362 51.2137 46.2501 51.0785 46.2501Z" fill="#A1B6DB"/>
<path d="M47.6508 49.7505H46.1822C46.047 49.7505 45.9375 49.8624 45.9375 50.0004V51.5007C45.9375 51.6387 46.047 51.7501 46.1822 51.7501H47.6508C47.7864 51.7501 47.8955 51.6387 47.8955 51.5007V50.0004C47.896 49.8624 47.7864 49.7505 47.6508 49.7505Z" fill="#A1B6DB"/>
<path d="M51.0785 49.7505H49.61C49.4743 49.7505 49.3652 49.8624 49.3652 50.0004V51.5007C49.3652 51.6387 49.4743 51.7501 49.61 51.7501H51.0785C51.2137 51.7501 51.3232 51.6387 51.3232 51.5007V50.0004C51.3232 49.8624 51.2137 49.7505 51.0785 49.7505Z" fill="#A1B6DB"/>
<path d="M57.4437 46.2501H55.9748C55.8396 46.2501 55.7305 46.362 55.7305 46.5001V48.0003C55.7305 48.1384 55.8396 48.2502 55.9748 48.2502H57.4437C57.5789 48.2502 57.6885 48.1384 57.6885 48.0003V46.5001C57.6885 46.362 57.5789 46.2501 57.4437 46.2501Z" fill="#A1B6DB"/>
<path d="M59.401 48.2507H60.8695C61.0052 48.2507 61.1138 48.1389 61.1138 48.0008V46.5006C61.1138 46.3625 61.0052 46.2506 60.8695 46.2506H59.401C59.2653 46.2506 59.1562 46.3625 59.1562 46.5006V48.0008C59.1562 48.1384 59.2653 48.2507 59.401 48.2507Z" fill="#A1B6DB"/>
<path d="M57.4437 49.7505H55.9748C55.8396 49.7505 55.7305 49.8624 55.7305 50.0004V51.5007C55.7305 51.6387 55.8396 51.7501 55.9748 51.7501H57.4437C57.5789 51.7501 57.6885 51.6387 57.6885 51.5007V50.0004C57.6885 49.8624 57.5789 49.7505 57.4437 49.7505Z" fill="#A1B6DB"/>
<path d="M59.401 51.7501H60.8695C61.0052 51.7501 61.1138 51.6387 61.1138 51.5007V50.0004C61.1138 49.8624 61.0052 49.7505 60.8695 49.7505H59.401C59.2653 49.7505 59.1562 49.8624 59.1562 50.0004V51.5007C59.1562 51.6387 59.2653 51.7501 59.401 51.7501Z" fill="#A1B6DB"/>
<path d="M52.547 38.5941H54.016C54.1512 38.5941 54.2607 38.4822 54.2607 38.3441V36.8435C54.2607 36.7054 54.1512 36.5935 54.016 36.5935H52.547C52.4118 36.5935 52.3027 36.7054 52.3027 36.8435V38.3437C52.3027 38.4818 52.4118 38.5941 52.547 38.5941Z" fill="#A1B6DB"/>
<path d="M55.9748 38.5941H57.4437C57.5789 38.5941 57.6885 38.4822 57.6885 38.3441V36.8435C57.6885 36.7054 57.5789 36.5935 57.4437 36.5935H55.9748C55.8396 36.5935 55.7305 36.7054 55.7305 36.8435V38.3437C55.7291 38.4818 55.8396 38.5941 55.9748 38.5941Z" fill="#A1B6DB"/>
<path d="M54.016 42.094C54.1512 42.094 54.2607 41.9821 54.2607 41.844V40.3438C54.2607 40.2057 54.1512 40.0939 54.016 40.0939H52.547C52.4118 40.0939 52.3027 40.2057 52.3027 40.3438V41.844C52.3027 41.9821 52.4118 42.094 52.547 42.094H54.016Z" fill="#A1B6DB"/>
<path d="M59.401 38.5941H60.8695C61.0052 38.5941 61.1138 38.4822 61.1138 38.3441V36.8435C61.1138 36.7054 61.0052 36.5935 60.8695 36.5935H59.401C59.2653 36.5935 59.1562 36.7054 59.1562 36.8435V38.3437C59.1562 38.4818 59.2653 38.5941 59.401 38.5941Z" fill="#A1B6DB"/>
<defs>
<filter id="filter0_d_91_2350" x="0" y="0" width="108" height="108" filterUnits="userSpaceOnUse" color-interpolation-filters="sRGB">
<feFlood flood-opacity="0" result="BackgroundImageFix"/>
<feColorMatrix in="SourceAlpha" type="matrix" values="0 0 0 0 0 0 0 0 0 0 0 0 0 0 0 0 0 0 127 0" result="hardAlpha"/>
<feOffset dy="10"/>
<feGaussianBlur stdDeviation="12"/>
<feColorMatrix type="matrix" values="0 0 0 0 0.811765 0 0 0 0 0.92549 0 0 0 0 0.972549 0 0 0 0.5 0"/>
<feBlend mode="normal" in2="BackgroundImageFix" result="effect1_dropShadow_91_2350"/>
<feBlend mode="normal" in="SourceGraphic" in2="effect1_dropShadow_91_2350" result="shape"/>
</filter>
</defs>
</svg>
