<svg width="48" height="16" viewBox="0 0 48 16" fill="none" xmlns="http://www.w3.org/2000/svg">
<path d="M20.7718 0.799011C19.8372 0.799011 19.0388 1.47287 18.8818 2.39416L17.1041 12.8266C16.9047 13.9968 17.8063 15.065 18.9933 15.065C19.9275 15.065 20.7255 14.3915 20.8826 13.4707L22.6617 3.03853C22.8614 1.86779 21.9594 0.799011 20.7718 0.799011Z" fill="white"/>
<path d="M14.7371 0.814083C13.9675 0.814643 13.2768 1.2864 12.9963 2.00303L10.2088 9.12478C10.031 9.57901 9.37727 9.54517 9.24733 9.07501C8.15233 6.49426 5.34832 8.24164 6.13579 10.9322L6.72724 12.953C7.09227 14.2002 8.23711 15.0565 9.53664 15.0543C10.7025 15.0523 11.7555 14.3575 12.2161 13.2865L16.4571 3.42397C16.9883 2.18867 16.0818 0.813103 14.7371 0.814083Z" fill="white"/>
<path d="M7.772 1.836C7.546 0.967002 6.891 0.708002 6.078 0.677002H0.186162C0.107418 0.677002 0.0400444 0.73355 0.026391 0.811101C0.0115514 0.89539 0.0654998 0.976811 0.148498 0.997694C2.07765 1.48309 3.73409 2.24179 5.10156 3.19924C5.64375 3.57886 7.90681 2.48401 7.772 1.836Z" fill="white"/>
<path d="M30.923 3.53402C32.195 3.51402 33.117 3.79202 33.833 4.08002C34.0094 4.16296 34.2163 4.05486 34.249 3.86266L34.5072 2.34516C34.6249 1.65308 34.2362 0.964865 33.5515 0.809663C32.8996 0.661875 32.1153 0.554016 31.227 0.554016C27.385 0.554016 24.677 2.48902 24.656 5.26202C24.631 7.31102 26.585 8.45502 28.061 9.13802C29.576 9.83802 30.084 10.283 30.077 10.908C30.065 11.863 28.869 12.301 27.752 12.301C26.195 12.301 25.368 12.086 24.091 11.554C23.8377 11.4388 23.544 11.5943 23.497 11.8686L23.2487 13.3183C23.1278 14.0237 23.5053 14.7233 24.2005 14.8936C25.094 15.1126 26.2204 15.2671 27.375 15.279C31.462 15.279 34.118 13.367 34.146 10.404C34.163 8.78302 33.126 7.54602 30.879 6.53102C29.519 5.86902 28.687 5.42902 28.695 4.76102C28.695 4.16802 29.401 3.53402 30.923 3.53402Z" fill="white"/>
<path fill-rule="evenodd" clip-rule="evenodd" d="M41.6844 0.815002C43.439 0.815002 44.9576 2.03505 45.3357 3.74844L47.3625 12.9342C47.6048 14.0324 46.7689 15.073 45.6442 15.073H45.3297C44.6862 15.073 44.1702 14.8096 44.0317 14.1812C43.8948 13.5597 43.3034 12.9357 42.667 12.9349C42.1792 12.9343 41.5929 12.9335 41.0238 12.9327C40.6334 12.9322 40.251 12.9317 39.9139 12.9313C39.2265 12.9304 38.5571 13.4942 38.3128 14.1367C38.066 14.7859 37.4981 15.073 36.8036 15.073H36.6904C35.3645 15.073 34.4763 13.7099 35.0119 12.497L39.6474 1.999C40.0574 1.069 40.7514 0.815002 41.6844 0.815002ZM41.6252 5.53978C41.6107 5.57747 41.2694 6.46885 41.2548 6.5065C40.9477 7.29799 40.34 8.86356 40.0223 9.67938C39.9602 9.83894 40.0784 10.01 40.2496 10.01H41.6409C42.4027 10.01 42.9694 9.30588 42.8066 8.56168L42.2224 5.891L42.1564 5.58091C42.0992 5.31245 41.7237 5.28358 41.6252 5.53978Z" fill="white"/>
</svg>
